<?xml version="1.0" encoding="UTF-8" standalone="no"?>
<!DOCTYPE svg PUBLIC "-//W3C//DTD SVG 1.1//EN"
 "http://www.w3.org/Graphics/SVG/1.1/DTD/svg11.dtd">
<!-- Generated by graphviz version 6.0.1 (20220911.2005)
 -->
<!-- Title: snakemake_dag Pages: 1 -->
<svg width="300pt" height="404pt"
 viewBox="0.00 0.00 299.50 404.00" xmlns="http://www.w3.org/2000/svg" xmlns:xlink="http://www.w3.org/1999/xlink">
<g id="graph0" class="graph" transform="scale(1 1) rotate(0) translate(4 400)">
<title>snakemake_dag</title>
<polygon fill="white" stroke="none" points="-4,4 -4,-400 295.5,-400 295.5,4 -4,4"/>
<!-- 0 -->
<g id="node1" class="node">
<title>0</title>
<path fill="none" stroke="#56c1d8" stroke-width="2" stroke-dasharray="5,2" d="M183.5,-36C183.5,-36 153.5,-36 153.5,-36 147.5,-36 141.5,-30 141.5,-24 141.5,-24 141.5,-12 141.5,-12 141.5,-6 147.5,0 153.5,0 153.5,0 183.5,0 183.5,0 189.5,0 195.5,-6 195.5,-12 195.5,-12 195.5,-24 195.5,-24 195.5,-30 189.5,-36 183.5,-36"/>
<text text-anchor="middle" x="168.5" y="-15.5" font-family="sans" font-size="10.00">all</text>
</g>
<!-- 1 -->
<g id="node2" class="node">
<title>1</title>
<path fill="none" stroke="#d8bc56" stroke-width="2" stroke-dasharray="5,2" d="M202.5,-108C202.5,-108 134.5,-108 134.5,-108 128.5,-108 122.5,-102 122.5,-96 122.5,-96 122.5,-84 122.5,-84 122.5,-78 128.5,-72 134.5,-72 134.5,-72 202.5,-72 202.5,-72 208.5,-72 214.5,-78 214.5,-84 214.5,-84 214.5,-96 214.5,-96 214.5,-102 208.5,-108 202.5,-108"/>
<text text-anchor="middle" x="168.5" y="-87.5" font-family="sans" font-size="10.00">sv_all_combine</text>
</g>
<!-- 1&#45;&gt;0 -->
<g id="edge1" class="edge">
<title>1&#45;&gt;0</title>
<path fill="none" stroke="grey" stroke-width="2" d="M168.5,-71.7C168.5,-63.98 168.5,-54.71 168.5,-46.11"/>
<polygon fill="grey" stroke="grey" stroke-width="2" points="172,-46.1 168.5,-36.1 165,-46.1 172,-46.1"/>
</g>
<!-- 2 -->
<g id="node3" class="node">
<title>2</title>
<path fill="none" stroke="#bed856" stroke-width="2" stroke-dasharray="5,2" d="M89,-180C89,-180 12,-180 12,-180 6,-180 0,-174 0,-168 0,-168 0,-156 0,-156 0,-150 6,-144 12,-144 12,-144 89,-144 89,-144 95,-144 101,-150 101,-156 101,-156 101,-168 101,-168 101,-174 95,-180 89,-180"/>
<text text-anchor="middle" x="50.5" y="-159.5" font-family="sans" font-size="10.00">sv_database_ann</text>
</g>
<!-- 2&#45;&gt;1 -->
<g id="edge2" class="edge">
<title>2&#45;&gt;1</title>
<path fill="none" stroke="grey" stroke-width="2" d="M79.37,-143.88C94.79,-134.72 113.98,-123.34 130.6,-113.48"/>
<polygon fill="grey" stroke="grey" stroke-width="2" points="132.71,-116.3 139.52,-108.19 129.14,-110.28 132.71,-116.3"/>
</g>
<!-- 3 -->
<g id="node4" class="node">
<title>3</title>
<path fill="none" stroke="#568ad8" stroke-width="2" stroke-dasharray="5,2" d="M169.5,-252C169.5,-252 117.5,-252 117.5,-252 111.5,-252 105.5,-246 105.5,-240 105.5,-240 105.5,-228 105.5,-228 105.5,-222 111.5,-216 117.5,-216 117.5,-216 169.5,-216 169.5,-216 175.5,-216 181.5,-222 181.5,-228 181.5,-228 181.5,-240 181.5,-240 181.5,-246 175.5,-252 169.5,-252"/>
<text text-anchor="middle" x="143.5" y="-231.5" font-family="sans" font-size="10.00">svmerge_qc</text>
</g>
<!-- 3&#45;&gt;2 -->
<g id="edge5" class="edge">
<title>3&#45;&gt;2</title>
<path fill="none" stroke="grey" stroke-width="2" d="M120.51,-215.7C108.69,-206.8 94.11,-195.82 81.32,-186.2"/>
<polygon fill="grey" stroke="grey" stroke-width="2" points="83.32,-183.32 73.22,-180.1 79.11,-188.91 83.32,-183.32"/>
</g>
<!-- 8 -->
<g id="node9" class="node">
<title>8</title>
<path fill="none" stroke="#56d8c1" stroke-width="2" stroke-dasharray="5,2" d="M205.5,-180C205.5,-180 131.5,-180 131.5,-180 125.5,-180 119.5,-174 119.5,-168 119.5,-168 119.5,-156 119.5,-156 119.5,-150 125.5,-144 131.5,-144 131.5,-144 205.5,-144 205.5,-144 211.5,-144 217.5,-150 217.5,-156 217.5,-156 217.5,-168 217.5,-168 217.5,-174 211.5,-180 205.5,-180"/>
<text text-anchor="middle" x="168.5" y="-159.5" font-family="sans" font-size="10.00">sv_seq_complex</text>
</g>
<!-- 3&#45;&gt;8 -->
<g id="edge10" class="edge">
<title>3&#45;&gt;8</title>
<path fill="none" stroke="grey" stroke-width="2" d="M149.68,-215.7C152.5,-207.81 155.89,-198.3 159.02,-189.55"/>
<polygon fill="grey" stroke="grey" stroke-width="2" points="162.32,-190.7 162.39,-180.1 155.73,-188.34 162.32,-190.7"/>
</g>
<!-- 4 -->
<g id="node5" class="node">
<title>4</title>
<path fill="none" stroke="#d85656" stroke-width="2" stroke-dasharray="5,2" d="M213,-324C213,-324 176,-324 176,-324 170,-324 164,-318 164,-312 164,-312 164,-300 164,-300 164,-294 170,-288 176,-288 176,-288 213,-288 213,-288 219,-288 225,-294 225,-300 225,-300 225,-312 225,-312 225,-318 219,-324 213,-324"/>
<text text-anchor="middle" x="194.5" y="-303.5" font-family="sans" font-size="10.00">sv_vcf_tf</text>
</g>
<!-- 4&#45;&gt;3 -->
<g id="edge6" class="edge">
<title>4&#45;&gt;3</title>
<path fill="none" stroke="grey" stroke-width="2" d="M181.89,-287.7C175.9,-279.47 168.62,-269.48 162.02,-260.42"/>
<polygon fill="grey" stroke="grey" stroke-width="2" points="164.68,-258.13 155.96,-252.1 159.02,-262.25 164.68,-258.13"/>
</g>
<!-- 7 -->
<g id="node8" class="node">
<title>7</title>
<path fill="none" stroke="#56d88a" stroke-width="2" stroke-dasharray="5,2" d="M279.5,-252C279.5,-252 211.5,-252 211.5,-252 205.5,-252 199.5,-246 199.5,-240 199.5,-240 199.5,-228 199.5,-228 199.5,-222 205.5,-216 211.5,-216 211.5,-216 279.5,-216 279.5,-216 285.5,-216 291.5,-222 291.5,-228 291.5,-228 291.5,-240 291.5,-240 291.5,-246 285.5,-252 279.5,-252"/>
<text text-anchor="middle" x="245.5" y="-231.5" font-family="sans" font-size="10.00">sv_info_extract</text>
</g>
<!-- 4&#45;&gt;7 -->
<g id="edge9" class="edge">
<title>4&#45;&gt;7</title>
<path fill="none" stroke="grey" stroke-width="2" d="M207.11,-287.7C213.1,-279.47 220.38,-269.48 226.98,-260.42"/>
<polygon fill="grey" stroke="grey" stroke-width="2" points="229.98,-262.25 233.04,-252.1 224.32,-258.13 229.98,-262.25"/>
</g>
<!-- 5 -->
<g id="node6" class="node">
<title>5</title>
<path fill="none" stroke="#59d856" stroke-width="2" stroke-dasharray="5,2" d="M174,-396C174,-396 111,-396 111,-396 105,-396 99,-390 99,-384 99,-384 99,-372 99,-372 99,-366 105,-360 111,-360 111,-360 174,-360 174,-360 180,-360 186,-366 186,-372 186,-372 186,-384 186,-384 186,-390 180,-396 174,-396"/>
<text text-anchor="middle" x="142.5" y="-375.5" font-family="sans" font-size="10.00">chromoseq_sv</text>
</g>
<!-- 5&#45;&gt;4 -->
<g id="edge7" class="edge">
<title>5&#45;&gt;4</title>
<path fill="none" stroke="grey" stroke-width="2" d="M155.35,-359.7C161.53,-351.39 169.04,-341.28 175.82,-332.14"/>
<polygon fill="grey" stroke="grey" stroke-width="2" points="178.64,-334.22 181.79,-324.1 173.02,-330.04 178.64,-334.22"/>
</g>
<!-- 6 -->
<g id="node7" class="node">
<title>6</title>
<path fill="none" stroke="#d88d56" stroke-width="2" stroke-dasharray="5,2" d="M278.5,-396C278.5,-396 216.5,-396 216.5,-396 210.5,-396 204.5,-390 204.5,-384 204.5,-384 204.5,-372 204.5,-372 204.5,-366 210.5,-360 216.5,-360 216.5,-360 278.5,-360 278.5,-360 284.5,-360 290.5,-366 290.5,-372 290.5,-372 290.5,-384 290.5,-384 290.5,-390 284.5,-396 278.5,-396"/>
<text text-anchor="middle" x="247.5" y="-375.5" font-family="sans" font-size="10.00">parliment2_sv</text>
</g>
<!-- 6&#45;&gt;4 -->
<g id="edge8" class="edge">
<title>6&#45;&gt;4</title>
<path fill="none" stroke="grey" stroke-width="2" d="M234.4,-359.7C228.11,-351.39 220.45,-341.28 213.54,-332.14"/>
<polygon fill="grey" stroke="grey" stroke-width="2" points="216.28,-329.96 207.45,-324.1 210.7,-334.19 216.28,-329.96"/>
</g>
<!-- 7&#45;&gt;1 -->
<g id="edge3" class="edge">
<title>7&#45;&gt;1</title>
<path fill="none" stroke="grey" stroke-width="2" d="M244.92,-215.83C243.61,-197.05 239.46,-166.62 226.5,-144 220.19,-133 210.82,-123 201.44,-114.72"/>
<polygon fill="grey" stroke="grey" stroke-width="2" points="203.54,-111.92 193.62,-108.19 199.05,-117.29 203.54,-111.92"/>
</g>
<!-- 8&#45;&gt;1 -->
<g id="edge4" class="edge">
<title>8&#45;&gt;1</title>
<path fill="none" stroke="grey" stroke-width="2" d="M168.5,-143.7C168.5,-135.98 168.5,-126.71 168.5,-118.11"/>
<polygon fill="grey" stroke="grey" stroke-width="2" points="172,-118.1 168.5,-108.1 165,-118.1 172,-118.1"/>
</g>
</g>
</svg>
